<svg width="40" height="40" viewBox="0 0 40 40" fill="none" xmlns="http://www.w3.org/2000/svg">
<circle cx="20" cy="20" r="20" fill="#D9D9D9"/>
<path d="M20 7.16666L9.5 11.8333V18.8333C9.5 25.3083 13.98 31.3633 20 32.8333C26.02 31.3633 30.5 25.3083 30.5 18.8333V11.8333L20 7.16666ZM20 11.7167C20.6922 11.7167 21.3689 11.9219 21.9445 12.3065C22.5201 12.6911 22.9687 13.2377 23.2336 13.8773C23.4985 14.5168 23.5678 15.2205 23.4327 15.8995C23.2977 16.5784 22.9644 17.202 22.4749 17.6915C21.9854 18.181 21.3617 18.5144 20.6828 18.6494C20.0039 18.7845 19.3001 18.7151 18.6606 18.4502C18.0211 18.1853 17.4744 17.7367 17.0899 17.1612C16.7053 16.5856 16.5 15.9089 16.5 15.2167C16.5 14.2884 16.8687 13.3982 17.5251 12.7418C18.1815 12.0854 19.0717 11.7167 20 11.7167V11.7167ZM20 20.9333C22.3333 20.9333 27 22.205 27 24.5267C26.2338 25.6818 25.1936 26.6294 23.9722 27.2849C22.7508 27.9403 21.3862 28.2834 20 28.2834C18.6138 28.2834 17.2492 27.9403 16.0278 27.2849C14.8064 26.6294 13.7662 25.6818 13 24.5267C13 22.205 17.6667 20.9333 20 20.9333Z" fill="white"/>
</svg>
