<svg width="78" height="78" viewBox="0 0 78 78" fill="none" xmlns="http://www.w3.org/2000/svg">
<path d="M39 3.25L9.75 16.25V35.75C9.75 53.7875 22.23 70.655 39 74.75C55.77 70.655 68.25 53.7875 68.25 35.75V16.25L39 3.25ZM39 15.925C40.9284 15.925 42.8134 16.4968 44.4168 17.5682C46.0202 18.6395 47.2699 20.1623 48.0078 21.9438C48.7458 23.7254 48.9389 25.6858 48.5627 27.5771C48.1865 29.4684 47.2579 31.2057 45.8943 32.5693C44.5307 33.9329 42.7934 34.8615 40.9021 35.2377C39.0108 35.6139 37.0504 35.4208 35.2688 34.6828C33.4873 33.9449 31.9645 32.6952 30.8932 31.0918C29.8218 29.4884 29.25 27.6034 29.25 25.675C29.25 23.0891 30.2772 20.6092 32.1057 18.7807C33.9342 16.9522 36.4141 15.925 39 15.925ZM39 41.6C45.5 41.6 58.5 45.1425 58.5 51.61C56.3655 54.8279 53.4678 57.4675 50.0654 59.2935C46.6629 61.1196 42.8615 62.0752 39 62.0752C35.1385 62.0752 31.3371 61.1196 27.9346 59.2935C24.5322 57.4675 21.6345 54.8279 19.5 51.61C19.5 45.1425 32.5 41.6 39 41.6Z" fill="#2798FC"/>
</svg>
