<svg width="10" height="10" viewBox="0 0 10 10" fill="none" xmlns="http://www.w3.org/2000/svg">
<path d="M0.791102 9.20887C1.04212 9.46024 1.34033 9.65954 1.6686 9.79531C1.99688 9.93107 2.34874 10.0006 2.70398 10C3.0593 10.0006 3.41125 9.93105 3.73961 9.79528C4.06797 9.65952 4.36628 9.46023 4.61741 9.20887L6.14772 7.67802L5.38256 6.91287L3.85226 8.44372C3.54731 8.74729 3.13454 8.91773 2.70426 8.91773C2.27397 8.91773 1.8612 8.74729 1.55625 8.44372C1.25241 8.13891 1.0818 7.72609 1.0818 7.29572C1.0818 6.86534 1.25241 6.45252 1.55625 6.14772L3.0871 4.61741L2.32195 3.85226L0.791102 5.38256C0.284502 5.89039 0 6.57841 0 7.29572C0 8.01302 0.284502 8.70104 0.791102 9.20887ZM9.20887 4.61741C9.71521 4.10944 9.99953 3.42147 9.99953 2.70426C9.99953 1.98704 9.71521 1.29907 9.20887 0.791101C8.70105 0.284502 8.01302 0 7.29572 0C6.57841 0 5.89039 0.284502 5.38256 0.791101L3.85226 2.32195L4.61741 3.0871L6.14772 1.55625C6.45266 1.25268 6.86543 1.08224 7.29572 1.08224C7.726 1.08224 8.13878 1.25268 8.44372 1.55625C8.74756 1.86106 8.91817 2.27388 8.91817 2.70426C8.91817 3.13463 8.74756 3.54745 8.44372 3.85226L6.91287 5.38256L7.67802 6.14772L9.20887 4.61741Z" fill="#898989"/>
<path d="M3.08662 7.6782L2.32092 6.91305L6.91347 2.32104L7.67862 3.08674L3.08662 7.6782Z" fill="#898989"/>
</svg>
