<svg width="20" height="20" viewBox="0 0 20 20" fill="none" xmlns="http://www.w3.org/2000/svg">
<path d="M3.76097 12.0819C3.76097 10.5861 3.76097 9.09025 3.76097 7.5945C3.7572 7.4788 3.77391 7.36334 3.81033 7.25346C3.86057 7.11707 3.95504 7.00142 4.07865 6.92497C4.20228 6.84852 4.34794 6.81567 4.49241 6.83164C4.65089 6.85654 4.795 6.93797 4.89812 7.06088C5.00123 7.18378 5.05636 7.33986 5.05333 7.50026C5.05333 8.89583 5.05333 10.2914 5.05333 11.687C5.05333 13.271 5.05333 14.8551 5.05333 16.4392C5.0425 16.5404 5.05463 16.6427 5.08883 16.7387C5.12302 16.8347 5.17839 16.9216 5.25083 16.9932C5.32327 17.0647 5.4109 17.1191 5.50724 17.1522C5.60356 17.1852 5.70609 17.1961 5.80721 17.184H13.3505C13.4534 17.1971 13.5579 17.1864 13.6561 17.153C13.7543 17.1196 13.8435 17.0642 13.9171 16.9911C13.9906 16.918 14.0465 16.829 14.0805 16.7311C14.1145 16.6331 14.1258 16.5287 14.1134 16.4257V7.59898C14.0995 7.45758 14.129 7.31531 14.1979 7.19107C14.2669 7.06683 14.3719 6.96652 14.4993 6.90344C14.6016 6.86117 14.7131 6.84572 14.823 6.85857C14.933 6.87141 15.0379 6.91211 15.1278 6.97681C15.2177 7.04152 15.2895 7.12808 15.3366 7.22832C15.3837 7.32856 15.4044 7.43915 15.3968 7.54962C15.3968 8.44708 15.3968 9.30417 15.3968 10.1792V16.4078C15.4094 16.6833 15.3646 16.9586 15.2654 17.2161C15.166 17.4735 15.0144 17.7075 14.8199 17.9032C14.6254 18.099 14.3924 18.2522 14.1355 18.3532C13.8788 18.4542 13.6038 18.5007 13.3281 18.4898H5.7399C5.21542 18.4887 4.71276 18.2798 4.34189 17.9089C3.97103 17.5381 3.76215 17.0354 3.76097 16.5109C3.75648 15.0346 3.76097 13.5582 3.76097 12.0819Z" fill="#9B9B9B"/>
<path d="M8.94393 11.3864C8.94393 12.23 8.94393 13.0736 8.94393 13.9173C8.94093 14.0021 8.92135 14.0855 8.88618 14.1629C8.85093 14.2401 8.80085 14.3097 8.73876 14.3676C8.61343 14.4846 8.44668 14.5469 8.2753 14.541C8.10392 14.535 7.94192 14.4613 7.82495 14.3359C7.70797 14.2105 7.6456 14.0438 7.65155 13.8724V10.7312C7.65155 10.0895 7.65155 9.44787 7.65155 8.81062C7.6448 8.66853 7.68511 8.5282 7.76625 8.41137C7.84738 8.29454 7.9648 8.20775 8.10029 8.16444C8.22537 8.12089 8.3611 8.11829 8.48776 8.15702C8.61443 8.19574 8.72543 8.27378 8.80485 8.37987C8.9036 8.50787 8.95293 8.66712 8.94393 8.82862C8.94393 9.69012 8.94393 10.5383 8.94393 11.3864Z" fill="#9B9B9B"/>
<path d="M10.2228 11.3594V8.79261C10.217 8.66711 10.2501 8.54286 10.3176 8.43686C10.3851 8.33083 10.4836 8.24822 10.5997 8.20031C10.7056 8.14588 10.8252 8.12408 10.9434 8.13765C11.0617 8.15124 11.1732 8.19959 11.2639 8.2766C11.3446 8.33878 11.4093 8.4192 11.453 8.5112C11.4967 8.60328 11.518 8.70428 11.5152 8.80611C11.5152 10.5203 11.5152 12.2299 11.5152 13.9397C11.5192 14.0261 11.5048 14.1125 11.4732 14.193C11.4414 14.2736 11.3931 14.3466 11.3312 14.4072C11.2694 14.4678 11.1954 14.5146 11.1142 14.5446C11.033 14.5746 10.9464 14.5871 10.86 14.5814C10.7735 14.587 10.6868 14.5738 10.606 14.5425C10.5252 14.5113 10.4521 14.4628 10.3918 14.4004C10.3316 14.338 10.2857 14.2634 10.2573 14.1814C10.2289 14.0995 10.2187 14.0124 10.2273 13.9262C10.2273 13.0691 10.2273 12.2165 10.2273 11.3594H10.2228Z" fill="#9B9B9B"/>
<path d="M15.9621 4.25572H12.9824C12.8524 4.25572 12.8164 4.22431 12.8164 4.08968C12.8164 3.52428 12.8164 2.95887 12.8164 2.39346C12.8269 2.29622 12.8155 2.19788 12.7832 2.10557C12.7509 2.01325 12.6986 1.92927 12.6299 1.85968C12.5611 1.79011 12.4778 1.73668 12.3859 1.70327C12.2939 1.66986 12.1958 1.6573 12.0984 1.6665H7.0591C6.9631 1.6581 6.86643 1.67098 6.77598 1.70423C6.68553 1.73747 6.60353 1.79025 6.53582 1.85882C6.4681 1.92739 6.41635 2.01005 6.38425 2.10091C6.35215 2.19178 6.34049 2.2886 6.3501 2.38448C6.3501 2.94989 6.3501 3.51979 6.3501 4.0852C6.3501 4.22431 6.31869 4.26021 6.17509 4.26021C5.17889 4.26021 4.18269 4.26021 3.182 4.26021C3.05469 4.25163 2.92745 4.278 2.81404 4.33649C2.69207 4.40274 2.59655 4.50886 2.54345 4.63711C2.49035 4.76535 2.48291 4.90793 2.52235 5.04101C2.54843 5.18872 2.6276 5.32179 2.74496 5.41518C2.86233 5.50857 3.00978 5.55584 3.15956 5.54808H15.9621C16.0493 5.55986 16.138 5.5525 16.2221 5.52651C16.3061 5.50052 16.3835 5.45652 16.4489 5.39758C16.5142 5.33865 16.5659 5.26618 16.6004 5.18523C16.6349 5.10427 16.6514 5.01678 16.6486 4.92883C16.6549 4.83768 16.6412 4.74627 16.6087 4.66088C16.5762 4.5755 16.5255 4.49818 16.4604 4.43421C16.3951 4.37025 16.3168 4.32118 16.2308 4.29037C16.1448 4.25956 16.0531 4.24773 15.9621 4.25572ZM11.5151 4.11661C11.5151 4.2288 11.4837 4.26021 11.367 4.26021C10.1704 4.26021 8.97369 4.26021 7.77708 4.26021C7.66041 4.26021 7.629 4.22431 7.63349 4.11213C7.63349 3.77557 7.63349 3.43902 7.63349 3.10247C7.63349 2.98579 7.66939 2.95887 7.78157 2.95887H9.57652C10.1689 2.95887 10.7612 2.95887 11.3714 2.95887C11.5061 2.95887 11.542 2.99028 11.5375 3.1249C11.5195 3.46145 11.5195 3.78454 11.5285 4.11661H11.5151Z" fill="#9B9B9B"/>
</svg>
