<svg width="20" height="20" viewBox="0 0 20 20" fill="none" xmlns="http://www.w3.org/2000/svg">
<path d="M17.7142 9.13404C18.1092 9.65071 18.1092 10.3482 17.7142 10.864C16.47 12.4882 13.485 15.8324 9.99999 15.8324C6.51499 15.8324 3.52999 12.4882 2.28582 10.864C2.09364 10.6167 1.98932 10.3123 1.98932 9.99904C1.98932 9.68578 2.09364 9.38143 2.28582 9.13404C3.52999 7.50988 6.51499 4.16571 9.99999 4.16571C13.485 4.16571 16.47 7.50988 17.7142 9.13404V9.13404Z" stroke="#828282" stroke-width="2" stroke-linecap="round" stroke-linejoin="round"/>
<path d="M10 12.499C11.3807 12.499 12.5 11.3797 12.5 9.99902C12.5 8.61831 11.3807 7.49902 10 7.49902C8.61929 7.49902 7.5 8.61831 7.5 9.99902C7.5 11.3797 8.61929 12.499 10 12.499Z" stroke="#828282" stroke-width="2" stroke-linecap="round" stroke-linejoin="round"/>
</svg>
