<svg width="20" height="20" viewBox="0 0 20 20" fill="none" xmlns="http://www.w3.org/2000/svg">
<path d="M17.7142 9.13496C18.1092 9.65163 18.1092 10.3491 17.7142 10.865C16.47 12.4891 13.485 15.8333 9.99999 15.8333C6.51499 15.8333 3.52999 12.4891 2.28582 10.865C2.09364 10.6176 1.98932 10.3132 1.98932 9.99996C1.98932 9.68669 2.09364 9.38235 2.28582 9.13496C3.52999 7.51079 6.51499 4.16663 9.99999 4.16663C13.485 4.16663 16.47 7.51079 17.7142 9.13496V9.13496Z" stroke="#414A52" stroke-width="2" stroke-linecap="round" stroke-linejoin="round"/>
<path d="M10 12.5C11.3807 12.5 12.5 11.3807 12.5 10C12.5 8.61929 11.3807 7.5 10 7.5C8.61929 7.5 7.5 8.61929 7.5 10C7.5 11.3807 8.61929 12.5 10 12.5Z" stroke="#414A52" stroke-width="2" stroke-linecap="round" stroke-linejoin="round"/>
</svg>
