<svg width="24" height="24" viewBox="0 0 24 24" fill="none" xmlns="http://www.w3.org/2000/svg">
<path d="M4.51314 14.502C4.51314 12.707 4.51314 10.912 4.51314 9.11712C4.50862 8.97828 4.52867 8.83973 4.57237 8.70787C4.63266 8.5442 4.74602 8.40543 4.89436 8.31369C5.04271 8.22195 5.2175 8.18252 5.39087 8.20169C5.58105 8.23157 5.75398 8.32929 5.87772 8.47678C6.00145 8.62426 6.06761 8.81155 6.06397 9.00403C6.06397 10.6787 6.06397 12.3534 6.06397 14.0281C6.06397 15.9289 6.06397 17.8298 6.06397 19.7307C6.05098 19.8522 6.06554 19.975 6.10657 20.0901C6.1476 20.2053 6.21405 20.3096 6.30097 20.3955C6.3879 20.4814 6.49306 20.5466 6.60866 20.5863C6.72425 20.6259 6.84729 20.639 6.96863 20.6245H16.0206C16.144 20.6402 16.2695 20.6274 16.3873 20.5873C16.5051 20.5472 16.6122 20.4807 16.7005 20.393C16.7887 20.3053 16.8558 20.1985 16.8966 20.081C16.9374 19.9634 16.9509 19.8381 16.936 19.7145V9.1225C16.9194 8.95282 16.9548 8.78209 17.0375 8.63301C17.1202 8.48392 17.2463 8.36354 17.3991 8.28785C17.5219 8.23713 17.6557 8.21859 17.7876 8.234C17.9196 8.24941 18.0455 8.29825 18.1533 8.37589C18.2612 8.45354 18.3474 8.55742 18.4039 8.6777C18.4604 8.79799 18.4852 8.9307 18.4761 9.06327C18.4761 10.1402 18.4761 11.1687 18.4761 12.2188V19.693C18.4912 20.0237 18.4375 20.354 18.3184 20.663C18.1992 20.9719 18.0172 21.2527 17.7838 21.4876C17.5504 21.7225 17.2708 21.9064 16.9626 22.0275C16.6545 22.1487 16.3245 22.2046 15.9937 22.1915H6.88786C6.25848 22.1901 5.65529 21.9395 5.21025 21.4944C4.76521 21.0494 4.51456 20.4462 4.51314 19.8168C4.50775 18.0452 4.51314 16.2736 4.51314 14.502Z" fill="#C03112"/>
<path d="M10.7326 13.6673C10.7326 14.6797 10.7326 15.692 10.7326 16.7044C10.729 16.8062 10.7055 16.9063 10.6633 16.9991C10.621 17.0918 10.5609 17.1753 10.4864 17.2448C10.336 17.3852 10.1359 17.46 9.93028 17.4529C9.72463 17.4457 9.53023 17.3572 9.38986 17.2067C9.24949 17.0563 9.17464 16.8562 9.18178 16.6505V12.8811C9.18178 12.1111 9.18178 11.3411 9.18178 10.5764C9.17368 10.4059 9.22206 10.2375 9.31942 10.0973C9.41678 9.95714 9.55768 9.85299 9.72027 9.80102C9.87037 9.74876 10.0332 9.74564 10.1852 9.79211C10.3372 9.83858 10.4704 9.93223 10.5657 10.0595C10.6842 10.2131 10.7434 10.4042 10.7326 10.598C10.7326 11.6318 10.7326 12.6496 10.7326 13.6673Z" fill="#C03112"/>
<path d="M12.2674 13.635V10.5548C12.2604 10.4042 12.3001 10.2551 12.3811 10.1279C12.4621 10.0007 12.5803 9.90155 12.7197 9.84406C12.8467 9.77874 12.9902 9.75258 13.1321 9.76887C13.274 9.78517 13.4078 9.84319 13.5167 9.9356C13.6135 10.0102 13.6912 10.1067 13.7436 10.2171C13.796 10.3276 13.8216 10.4488 13.8182 10.571C13.8182 12.628 13.8182 14.6796 13.8182 16.7313C13.823 16.835 13.8058 16.9387 13.7678 17.0353C13.7297 17.132 13.6717 17.2196 13.5975 17.2923C13.5233 17.365 13.4345 17.4212 13.3371 17.4572C13.2396 17.4932 13.1357 17.5082 13.032 17.5013C12.9282 17.5081 12.8242 17.4922 12.7272 17.4547C12.6302 17.4172 12.5425 17.359 12.4702 17.2842C12.3979 17.2093 12.3429 17.1197 12.3088 17.0214C12.2747 16.9231 12.2624 16.8186 12.2728 16.7151C12.2728 15.6866 12.2728 14.6635 12.2728 13.635H12.2674Z" fill="#C03112"/>
<path d="M19.1545 5.11057H15.5789C15.4228 5.11057 15.3797 5.07288 15.3797 4.91133C15.3797 4.23284 15.3797 3.55435 15.3797 2.87586C15.3922 2.75917 15.3786 2.64117 15.3398 2.53039C15.3011 2.41961 15.2383 2.31883 15.1558 2.23533C15.0733 2.15184 14.9733 2.08772 14.863 2.04763C14.7527 2.00754 14.6349 1.99247 14.5181 2.00351H8.4709C8.3557 1.99343 8.23969 2.00889 8.13115 2.04878C8.02261 2.08867 7.92421 2.15201 7.84296 2.23429C7.7617 2.31658 7.6996 2.41577 7.66108 2.5248C7.62256 2.63384 7.60856 2.75003 7.62009 2.86509C7.62009 3.54358 7.62009 4.22746 7.62009 4.90595C7.62009 5.07288 7.5824 5.11596 7.41008 5.11596C6.21464 5.11596 5.0192 5.11596 3.81838 5.11596C3.6656 5.10566 3.51291 5.13731 3.37682 5.2075C3.23046 5.287 3.11583 5.41434 3.05211 5.56824C2.9884 5.72213 2.97947 5.89323 3.0268 6.05292C3.05809 6.23017 3.1531 6.38986 3.29393 6.50193C3.43477 6.614 3.61171 6.67072 3.79145 6.66141H19.1545C19.2591 6.67554 19.3656 6.66671 19.4665 6.63552C19.5673 6.60433 19.6602 6.55154 19.7386 6.48081C19.817 6.41009 19.8791 6.32313 19.9205 6.22599C19.9619 6.12884 19.9816 6.02385 19.9783 5.9183C19.9858 5.80892 19.9694 5.69923 19.9304 5.59677C19.8914 5.49431 19.8306 5.40152 19.7524 5.32476C19.6741 5.24801 19.5801 5.18912 19.4769 5.15215C19.3737 5.11518 19.2637 5.10099 19.1545 5.11057ZM13.8181 4.94364C13.8181 5.07827 13.7804 5.11596 13.6404 5.11596C12.2044 5.11596 10.7684 5.11596 9.33247 5.11596C9.19247 5.11596 9.15477 5.07288 9.16016 4.93826C9.16016 4.53439 9.16016 4.13053 9.16016 3.72667C9.16016 3.58666 9.20324 3.55435 9.33786 3.55435H11.4918C12.2026 3.55435 12.9134 3.55435 13.6457 3.55435C13.8073 3.55435 13.8504 3.59204 13.845 3.75359C13.8234 4.15745 13.8234 4.54516 13.8342 4.94364H13.8181Z" fill="#C03112"/>
</svg>
