<svg width="16" height="16" viewBox="0 0 16 16" fill="none" xmlns="http://www.w3.org/2000/svg">
<path d="M13.6623 8.38107V7.6139L14.6511 6.77152C14.8333 6.6151 14.9529 6.40098 14.9887 6.16701C15.0246 5.93303 14.9743 5.69426 14.8468 5.4929L13.6314 3.48722C13.5411 3.33492 13.4112 3.20842 13.2548 3.12041C13.0984 3.0324 12.921 2.98598 12.7404 2.9858C12.6285 2.98497 12.5172 3.0019 12.4108 3.03594L11.1594 3.44711C10.9433 3.30731 10.718 3.18168 10.4847 3.07104L10.2221 1.80746C10.175 1.57661 10.046 1.36924 9.85772 1.22166C9.66942 1.07407 9.4338 0.99567 9.19211 1.00018H6.78193C6.54025 0.99567 6.30463 1.07407 6.11633 1.22166C5.92803 1.36924 5.79904 1.57661 5.75194 1.80746L5.4893 3.07104C5.25443 3.18166 5.02733 3.30728 4.8095 3.44711L3.58382 3.01589C3.47633 2.98862 3.36503 2.97846 3.25422 2.9858C3.0736 2.98598 2.8962 3.0324 2.73982 3.12041C2.58345 3.20842 2.45359 3.33492 2.36328 3.48722L1.14789 5.4929C1.02768 5.69396 0.983015 5.92946 1.02153 6.15907C1.06006 6.38867 1.17937 6.59809 1.35904 6.75146L2.33238 7.61892V8.38609L1.35904 9.22847C1.17429 9.38291 1.05172 9.59608 1.01306 9.83015C0.974409 10.0642 1.02218 10.3041 1.14789 10.5071L2.36328 12.5128C2.45359 12.6651 2.58345 12.7916 2.73982 12.8796C2.8962 12.9676 3.0736 13.014 3.25422 13.0142C3.36615 13.015 3.47748 12.9981 3.58382 12.964L4.83525 12.5529C5.05131 12.6927 5.27669 12.8183 5.5099 12.9289L5.77254 14.1925C5.81964 14.4234 5.94863 14.6307 6.13693 14.7783C6.32523 14.9259 6.56085 15.0043 6.80253 14.9998H9.23331C9.475 15.0043 9.71062 14.9259 9.89892 14.7783C10.0872 14.6307 10.2162 14.4234 10.2633 14.1925L10.5259 12.9289C10.7608 12.8183 10.9879 12.6927 11.2057 12.5529L12.452 12.964C12.5584 12.9981 12.6697 13.015 12.7816 13.0142C12.9622 13.014 13.1396 12.9676 13.296 12.8796C13.4524 12.7916 13.5823 12.6651 13.6726 12.5128L14.8468 10.5071C14.967 10.306 15.0116 10.0705 14.9731 9.84093C14.9346 9.61132 14.8153 9.4019 14.6356 9.24853L13.6623 8.38107ZM12.7404 12.0114L10.974 11.4297C10.5605 11.7707 10.0879 12.0373 9.57836 12.2169L9.21271 14.017H6.78193L6.41629 12.237C5.91078 12.0523 5.44074 11.7861 5.0258 11.4498L3.25422 12.0114L2.03883 10.0057L3.43962 8.80227C3.34439 8.28323 3.34439 7.75186 3.43962 7.23282L2.03883 5.99432L3.25422 3.98864L5.02065 4.57029C5.43416 4.22927 5.90675 3.96269 6.41629 3.78306L6.78193 1.98296H9.21271L9.57836 3.763C10.0839 3.94774 10.5539 4.21385 10.9688 4.55023L12.7404 3.98864L13.9558 5.99432L12.555 7.19772C12.6503 7.71676 12.6503 8.24813 12.555 8.76717L13.9558 10.0057L12.7404 12.0114Z" fill="#0D151C"/>
<path d="M8 11C7.40666 11 6.82664 10.8241 6.33329 10.4944C5.83994 10.1648 5.45543 9.69623 5.22836 9.14805C5.0013 8.59987 4.94189 7.99667 5.05765 7.41473C5.1734 6.83279 5.45912 6.29824 5.87868 5.87868C6.29824 5.45912 6.83279 5.1734 7.41473 5.05764C7.99667 4.94189 8.59987 5.0013 9.14805 5.22836C9.69623 5.45542 10.1648 5.83994 10.4944 6.33329C10.8241 6.82664 11 7.40666 11 8C11.004 8.39508 10.9292 8.78699 10.7798 9.15278C10.6305 9.51857 10.4096 9.85088 10.1303 10.1303C9.85088 10.4096 9.51857 10.6305 9.15278 10.7798C8.78699 10.9292 8.39508 11.004 8 11ZM8 6C7.73567 5.99384 7.47284 6.04137 7.22741 6.1397C6.98197 6.23803 6.75904 6.38512 6.57208 6.57208C6.38512 6.75903 6.23803 6.98197 6.1397 7.22741C6.04137 7.47284 5.99384 7.73567 6 8C5.99384 8.26433 6.04137 8.52716 6.1397 8.77259C6.23803 9.01803 6.38512 9.24097 6.57208 9.42792C6.75904 9.61488 6.98197 9.76198 7.22741 9.8603C7.47284 9.95863 7.73567 10.0062 8 10C8.26433 10.0062 8.52716 9.95863 8.77259 9.8603C9.01803 9.76198 9.24097 9.61488 9.42793 9.42792C9.61488 9.24097 9.76198 9.01803 9.86031 8.77259C9.95864 8.52716 10.0062 8.26433 10 8C10.0062 7.73567 9.95864 7.47284 9.86031 7.22741C9.76198 6.98197 9.61488 6.75903 9.42793 6.57208C9.24097 6.38512 9.01803 6.23803 8.77259 6.1397C8.52716 6.04137 8.26433 5.99384 8 6Z" fill="#0D151C"/>
</svg>
